<svg width="94" height="94" viewBox="0 0 94 94" fill="none" xmlns="http://www.w3.org/2000/svg">
<path d="M77.1625 28.0846H73.4043L72.6198 26.5607L70.524 22.5166H70.5233C70.3649 22.21 70.0474 22.0174 69.7021 22.018H57.4859V18.9619C57.4859 18.7172 57.3886 18.4821 57.2153 18.3088C57.0421 18.1356 56.8076 18.0383 56.5623 18.0383H52.8047L49.9237 12.4979V12.4985C49.7646 12.1913 49.4477 11.9987 49.1018 12H24.384C24.0388 11.9987 23.7213 12.1913 23.5628 12.4985L20.6818 18.039L16.9236 18.0383C16.4135 18.0383 16 18.4518 16 18.9619V24.2621C16 24.5069 16.0973 24.742 16.2705 24.9146C16.4438 25.0878 16.6789 25.1851 16.9236 25.1851H19.0015L22.833 71.0674C22.8717 71.5486 23.2742 71.9183 23.7567 71.917H42.6672L43.4427 81.1505C43.4813 81.6316 43.8839 82.0013 44.3663 82H70.3306C70.8131 82.0013 71.2156 81.6316 71.2542 81.1505L75.0858 35.2599H77.1637C77.4085 35.2599 77.6436 35.1626 77.8168 34.9894C77.9901 34.8161 78.0873 34.5817 78.0873 34.3363V29.0086C78.0873 28.7638 77.99 28.5294 77.8168 28.3561C77.6435 28.1828 77.4084 28.0856 77.1637 28.0856L77.1625 28.0846ZM71.3271 28.0846H43.3495L45.5471 23.8833H69.1387L71.3271 28.0846ZM24.9468 13.8092H48.5384L50.736 18.0382H22.7585L24.9468 13.8092ZM17.8466 23.3384V19.8855H55.6397V22.0368H44.984C44.6382 22.0361 44.3213 22.2281 44.1622 22.5353L43.7377 23.3571H17.8839L17.8466 23.3384ZM20.8473 25.1849H42.7851L41.2799 28.0846H37.5224C37.0123 28.0846 36.5988 28.4981 36.5988 29.0075V32.5346L21.4649 32.5352L20.8473 25.1849ZM40.7538 49.0255C40.3229 50.2705 39.3426 51.247 38.0957 51.6727C36.8487 52.0991 35.4755 51.9259 34.3736 51.2045C33.2709 50.4838 32.5625 49.2941 32.4535 47.9815C32.344 46.6689 32.8464 45.3788 33.8144 44.4855C34.7831 43.5921 36.1086 43.1947 37.4091 43.4092C38.7088 43.623 39.8373 44.4249 40.4678 45.5817L40.7538 49.0255ZM40.2185 42.6079C39.199 41.8923 37.9829 41.5084 36.7373 41.5091C34.7007 41.5059 32.7956 42.5171 31.6574 44.2058C30.5193 45.8952 30.2971 48.04 31.0649 49.9264C31.8333 51.8129 33.4898 53.1926 35.4846 53.6066C37.4787 54.0208 39.5482 53.4141 41.0031 51.9894L41.271 55.184C38.9066 56.608 36.0116 56.8437 33.4481 55.821C30.884 54.7982 28.9459 52.6354 28.2097 49.9753C27.4742 47.3146 28.0249 44.4633 29.6988 42.2683C31.3727 40.0739 33.9768 38.7884 36.7374 38.7949C37.8375 38.7917 38.9279 38.9984 39.9507 39.4042L40.2185 42.6079ZM42.2222 44.4544L72.462 44.4551L70.1904 71.6197H44.4932L42.2222 44.4544ZM72.6186 42.6079H42.0656L41.4563 35.2209L73.2295 35.2216L72.6186 42.6079ZM21.6216 34.381H36.6074C36.6461 34.8621 37.0486 35.2318 37.531 35.2305H39.6089L39.7937 37.4004H39.7931C38.8057 37.099 37.7784 36.9463 36.746 36.9476C32.9331 36.9476 29.4094 38.9823 27.5023 42.2851C25.5959 45.5872 25.5959 49.6566 27.5023 52.9587C29.4094 56.2615 32.9333 58.2955 36.746 58.2955C38.3775 58.2936 39.9857 57.9142 41.4459 57.1877L41.8059 61.5739H23.8929L21.6216 34.381ZM24.6043 70.0504L24.0504 63.4023H41.9536L42.5075 70.0504H24.6043ZM45.1951 80.1245L44.6412 73.4673L70.0333 73.4666L69.4794 80.1238L45.1951 80.1245ZM76.2378 33.3848H38.4447V29.9313H76.2378V33.3848ZM57.347 46.9671C54.5183 46.9671 51.8054 48.0897 49.8036 50.089C47.8024 52.0882 46.6766 54.7998 46.6734 57.6287C46.6703 60.4576 47.7896 63.1722 49.7863 65.1759C51.7835 67.1796 54.4939 68.3087 57.3226 68.3152C60.1514 68.3216 62.8669 67.2048 64.8732 65.2107C66.8788 63.2159 68.0111 60.5071 68.0208 57.6781C68.0285 54.8416 66.9072 52.1184 64.9053 50.109C62.9028 48.1 60.1835 46.9697 57.347 46.9671V46.9671ZM57.347 66.468C55.0059 66.468 52.7606 65.5379 51.1053 63.8819C49.4501 62.2266 48.52 59.9814 48.52 57.6402C48.52 55.2997 49.45 53.0545 51.1053 51.3985C52.7606 49.7433 55.0059 48.8131 57.347 48.8131C59.6882 48.8131 61.9335 49.7432 63.5887 51.3985C65.244 53.0545 66.1741 55.2997 66.1741 57.6402C66.1818 59.9872 65.255 62.2408 63.5991 63.9032C61.9432 65.5662 59.694 66.5021 57.347 66.5046V66.468ZM57.347 51.528C55.7259 51.528 54.171 52.172 53.0246 53.3184C51.8781 54.4643 51.2348 56.0191 51.2348 57.6402C51.2348 59.2614 51.8782 60.8162 53.0246 61.9627C54.171 63.1091 55.7259 63.7531 57.347 63.7531C58.9682 63.7531 60.523 63.1091 61.6695 61.9627C62.8159 60.8162 63.4593 59.2614 63.4593 57.6402C63.4426 56.03 62.7914 54.4906 61.6469 53.3565C60.503 52.2229 58.9578 51.586 57.347 51.5834V51.528ZM57.347 61.9066C56.2154 61.9066 55.1308 61.457 54.3308 60.6571C53.5308 59.8572 53.0813 58.7718 53.0813 57.6402C53.0813 56.5092 53.5309 55.424 54.3308 54.624C55.1308 53.824 56.2154 53.3745 57.347 53.3745C58.4787 53.3745 59.5633 53.824 60.3633 54.624C61.1632 55.4239 61.6128 56.5093 61.6128 57.6402C61.6205 58.7776 61.1742 59.8706 60.3736 60.6784C59.5736 61.4854 58.4838 61.9407 57.3471 61.9433L57.347 61.9066Z" fill="black"/>
</svg>
