<svg width="94" height="94" viewBox="0 0 94 94" fill="none" xmlns="http://www.w3.org/2000/svg">
<path d="M70.4381 19.1287H65.8942L62.4128 12.4699C62.2628 12.1803 61.9641 11.9988 61.638 12H32.6357C32.3096 11.9988 32.0109 12.1803 31.8609 12.4699L28.3795 19.1287H23.8701C23.3892 19.1287 23 19.5185 23 19.9988V26.2314C23 26.4621 23.0917 26.6837 23.2544 26.847C23.4177 27.0104 23.6393 27.102 23.8701 27.102H26.4815L31.0079 81.1992C31.0443 81.6521 31.4232 82.0012 31.8779 82H62.4129C62.8677 82.0012 63.2471 81.6521 63.2836 81.1992L67.81 27.102H70.4214H70.4208C70.6515 27.102 70.8731 27.0104 71.0364 26.847C71.1998 26.6837 71.2915 26.4621 71.2915 26.2314V19.9988C71.2915 19.5252 70.912 19.1378 70.4384 19.1287H70.4381ZM33.1667 13.7232H61.1416L63.9267 19.1287H30.381L33.1667 13.7232ZM28.2578 27.0844H66.0515L65.2943 36.1458H29.0146L28.2578 27.0844ZM32.6968 80.2412L32.0089 71.9984H62.2998L61.6119 80.2412H32.6968ZM62.4484 70.2571H31.8621L29.1548 37.8865H65.1563L62.4484 70.2571ZM69.5686 25.343L24.7416 25.3436V20.8694H69.5686V25.343ZM47.1551 41.334C43.8862 41.334 40.7514 42.6327 38.4399 44.9442C36.1285 47.2557 34.8297 50.3905 34.8297 53.6594C34.8297 56.9283 36.1284 60.0631 38.4399 62.3746C40.7514 64.686 43.8862 65.9842 47.1551 65.9842C50.424 65.9842 53.5588 64.6861 55.8703 62.3746C58.1817 60.0631 59.4805 56.9283 59.4805 53.6594C59.4781 50.3911 58.1788 47.2574 55.8679 44.9466C53.5571 42.6357 50.4235 41.3363 47.1551 41.334V41.334ZM47.1551 64.2433C44.3481 64.2433 41.656 63.1286 39.6706 61.1432C37.6858 59.1583 36.5705 56.4662 36.5705 53.6594C36.5705 50.852 37.6859 48.1597 39.6706 46.175C41.656 44.1901 44.3483 43.0748 47.1551 43.0748C49.9619 43.0748 52.6542 44.1902 54.6395 46.175C56.6244 48.1598 57.7397 50.852 57.7397 53.6594C57.7372 56.4658 56.6213 59.1566 54.6364 61.1409C52.6522 63.1258 49.9613 64.241 47.1549 64.2435L47.1551 64.2433ZM47.1551 46.6964C45.3081 46.6964 43.5371 47.4299 42.2309 48.7359C40.9256 50.0419 40.1915 51.813 40.1915 53.66C40.1915 55.5064 40.9256 57.278 42.2309 58.5835C43.5369 59.8895 45.3081 60.6236 47.1551 60.6236C49.0021 60.6236 50.7731 59.8895 52.0792 58.5835C53.3846 57.2781 54.1187 55.5064 54.1187 53.66C54.1187 51.813 53.3846 50.042 52.0792 48.7359C50.7732 47.4299 49.0021 46.6964 47.1551 46.6964ZM47.1551 58.8821C45.7701 58.8821 44.4417 58.332 43.4623 57.3527C42.4829 56.3733 41.9322 55.0448 41.9322 53.6599C41.9322 52.2743 42.4829 50.9465 43.4623 49.9665C44.4417 48.9871 45.7702 48.437 47.1551 48.437C48.54 48.437 49.8685 48.9871 50.8479 49.9665C51.8272 50.9464 52.3779 52.2744 52.3779 53.6599C52.3798 55.0461 51.8309 56.3769 50.8509 57.3581C49.8716 58.3393 48.542 58.8912 47.1552 58.8912L47.1551 58.8821Z" fill="black"/>
</svg>
