<svg width="94" height="94" viewBox="0 0 94 94" fill="none" xmlns="http://www.w3.org/2000/svg">
<path d="M50.2058 17.8577C49.2759 17.8577 48.3845 18.2271 47.7267 18.8843C47.069 19.542 46.6995 20.4341 46.6995 21.364C46.6995 22.2938 47.069 23.1853 47.7267 23.8431C48.3845 24.5008 49.2759 24.8703 50.2058 24.8703C51.1357 24.8703 52.0277 24.5008 52.6855 23.8431C53.3427 23.1853 53.7121 22.2938 53.7121 21.364C53.7121 20.4341 53.3427 19.5421 52.6855 18.8843C52.0278 18.2271 51.1357 17.8577 50.2058 17.8577ZM50.2058 23.2198C49.4554 23.2198 48.7781 22.7675 48.4909 22.074C48.2037 21.3806 48.3626 20.5818 48.8931 20.0513C49.4243 19.5202 50.2225 19.3614 50.9164 19.6491C51.6099 19.9362 52.0622 20.613 52.0622 21.364C52.0622 22.3889 51.2312 23.22 50.2057 23.22L50.2058 23.2198ZM59.396 17.8577H59.3966C58.4667 17.8577 57.5747 18.2271 56.9169 18.8843C56.2598 19.542 55.8903 20.4341 55.8903 21.364C55.8903 22.2938 56.2597 23.1853 56.9169 23.8431C57.5747 24.5008 58.4667 24.8703 59.3966 24.8703C60.326 24.8703 61.2179 24.5008 61.8757 23.8431C62.5329 23.1853 62.9023 22.2938 62.9023 21.364C62.9023 20.4341 62.5329 19.5421 61.8757 18.8843C61.2179 18.2271 60.3259 17.8577 59.3966 17.8577H59.396ZM59.396 23.2198H59.3966C58.6456 23.2198 57.9689 22.7675 57.6817 22.074C57.3939 21.3806 57.5528 20.5818 58.0839 20.0513C58.6145 19.5202 59.4132 19.3614 60.1066 19.6491C60.8 19.9362 61.2524 20.613 61.2524 21.364C61.2524 22.3889 60.4214 23.22 59.3964 23.22L59.396 23.2198ZM68.5948 17.8577C67.6648 17.8577 66.7735 18.2271 66.1157 18.8843C65.4579 19.542 65.0885 20.4341 65.0885 21.364C65.0885 22.2938 65.4579 23.1853 66.1157 23.8431C66.7734 24.5008 67.6649 24.8703 68.5948 24.8703C69.5247 24.8703 70.4167 24.5008 71.0739 23.8431C71.7316 23.1853 72.1011 22.2938 72.1011 21.364C72.1011 20.4341 71.7316 19.5421 71.0739 18.8843C70.4167 18.2271 69.5247 17.8577 68.5948 17.8577V17.8577ZM68.5948 23.2198C67.8444 23.2198 67.1671 22.7675 66.8798 22.074C66.5927 21.3806 66.7515 20.5818 67.2821 20.0513C67.8133 19.5202 68.6114 19.3614 69.3054 19.6491C69.9988 19.9362 70.4511 20.613 70.4511 21.364C70.4511 22.3889 69.6202 23.22 68.5946 23.22L68.5948 23.2198ZM71.8122 36.8405C72.0309 36.8405 72.241 36.7536 72.3958 36.5988C72.5506 36.444 72.6374 36.2345 72.6374 36.0153V30.7193H74.9801C75.6759 30.7193 76.3434 30.4425 76.8354 29.9504C77.3275 29.459 77.6037 28.7915 77.6037 28.0957V14.6235C77.6014 13.9283 77.3246 13.2625 76.8331 12.7711C76.3417 12.2797 75.6753 12.0023 74.9802 12H19.6235C18.9284 12.0023 18.262 12.2797 17.7706 12.7711C17.2791 13.2626 17.0023 13.9284 17 14.6235V28.0957C17 28.7914 17.2762 29.459 17.7682 29.9504C18.2603 30.4425 18.9278 30.7193 19.6236 30.7193H21.9662V36.0158V36.0153C21.9662 36.2345 22.0531 36.444 22.2079 36.5988C22.3627 36.7536 22.5728 36.8405 22.7915 36.8405H24.7878V43.8364C24.0857 43.929 23.4159 44.1862 22.8324 44.5874C22.2846 44.9936 21.9629 45.637 21.9663 46.3195V46.369C21.9646 47.0509 22.2857 47.6937 22.8324 48.1018C23.4148 48.5029 24.0858 48.7578 24.7878 48.8441V67.3401H22.7915C22.3357 67.3401 21.9662 67.7095 21.9662 68.1653V73.4533H19.6236C18.9284 73.4556 18.262 73.733 17.7706 74.2244C17.2791 74.7159 17.0023 75.3817 17 76.0768V79.3765C17.0023 80.0716 17.2791 80.738 17.7706 81.2294C18.262 81.7209 18.9284 81.9983 19.6236 82H74.9802H74.9796C75.6748 81.9983 76.3412 81.7209 76.8326 81.2294C77.324 80.738 77.6008 80.0716 77.6031 79.3765V76.0768C77.6008 75.3816 77.324 74.7158 76.8326 74.2244C76.3411 73.733 75.6747 73.4556 74.9796 73.4533H72.6369V68.1653C72.6369 67.9466 72.55 67.7365 72.3952 67.5818C72.2404 67.427 72.0304 67.3401 71.8117 67.3401H69.8154V36.8156L71.8122 36.8405ZM18.6507 28.0957V14.6236C18.6507 14.3658 18.7531 14.1177 18.9361 13.9353C19.1185 13.7529 19.366 13.6504 19.6244 13.6504H74.981H74.9804C75.2388 13.6504 75.4862 13.7529 75.6687 13.9353C75.8517 14.1177 75.9541 14.3658 75.9541 14.6236V28.0957C75.9541 28.6332 75.5185 29.0694 74.9804 29.0694H19.6238C19.0857 29.0694 18.6501 28.6332 18.6501 28.0957H18.6507ZM42.0066 42.6815V40.5367H52.5998V42.6815H42.0066ZM54.0183 44.3313V48.2751H40.5875V44.3808L54.0183 44.3313ZM38.1211 38.8863V36.8405H56.4859V38.8863H38.1211ZM23.6177 30.7188L70.9881 30.7193V35.1908H57.6563C57.5487 35.1361 57.4302 35.1079 57.3099 35.1079H37.2951C37.1749 35.1079 37.0563 35.1361 36.9487 35.1908H23.6169L23.6177 30.7188ZM26.4391 36.84L36.4713 36.8406V39.7115C36.4713 39.9302 36.5582 40.1403 36.713 40.2951C36.8678 40.4499 37.0772 40.5368 37.2959 40.5368H40.3568V42.7477C39.5367 42.8634 38.9296 43.5695 38.9377 44.3975V45.3545C36.6197 44.8182 30.6135 43.5315 26.4391 43.7047L26.4391 36.84ZM23.6177 46.3692V46.3197C23.6131 46.1436 23.7005 45.9779 23.849 45.8824C24.4101 45.445 25.5731 45.2718 27.0665 45.2718C30.0295 45.3673 32.9776 45.7258 35.8775 46.3444C31.0678 47.2934 25.3344 47.9535 23.8492 46.7979V46.7985C23.7018 46.7058 23.6144 46.543 23.6178 46.3692L23.6177 46.3692ZM75.9557 76.0687V79.3684C75.9557 79.9059 75.5201 80.3421 74.982 80.3421H19.6254C19.0874 80.3421 18.6517 79.9059 18.6517 79.3684V76.0687C18.6517 75.8104 18.7542 75.5629 18.9372 75.3805C19.1196 75.1975 19.367 75.095 19.6254 75.095H74.982H74.9815C75.241 75.095 75.4902 75.1986 75.6732 75.3833C75.8556 75.5675 75.9575 75.8172 75.9552 76.0768L75.9557 76.0687ZM71.0055 73.4451H23.6189V68.9899H70.9893L71.0055 73.4451ZM56.7086 59.4861C57.2335 59.2743 57.8135 59.2426 58.3585 59.3957C58.4494 59.4619 58.4989 59.6104 58.4989 59.8492C58.4989 61.3011 57.4348 62.654 55.6527 63.5615C56.1861 62.2569 56.5418 60.8862 56.7087 59.486L56.7086 59.4861ZM52.5342 65.418C51.2711 66.6501 49.5757 67.3395 47.8113 67.3395C46.0464 67.3395 44.3517 66.6501 43.088 65.418C40.8195 63.0506 40.4477 59.0742 40.3982 57.3909H55.248C55.1743 59.0742 54.8026 63.0506 52.5341 65.418H52.5342ZM52.8559 67.3401C53.4302 66.9096 53.936 66.3952 54.3572 65.814C57.8796 64.8075 60.132 62.5144 60.132 59.8493C60.1826 59.13 59.85 58.4372 59.2578 58.0263C58.5276 57.624 57.6712 57.5181 56.8651 57.7293V56.5168V56.5162C56.8651 56.2976 56.7782 56.0881 56.624 55.9333C56.4692 55.7785 56.2591 55.6916 56.0405 55.6916H39.5407C39.0849 55.6916 38.7155 56.0611 38.7155 56.5163C38.7155 56.7718 38.4514 62.9678 41.8506 66.5397V66.5403C42.1251 66.8349 42.4203 67.1106 42.7334 67.3649H26.4399V49.0178H27.2651C31.2071 48.8573 35.1231 48.3048 38.9552 47.368V48.3169V48.3163C38.9552 48.7543 39.1289 49.1738 39.4385 49.4834C39.7476 49.793 40.1677 49.9668 40.605 49.9668H54.0358C54.4737 49.9668 54.8932 49.793 55.2028 49.4834C55.5119 49.1738 55.6857 48.7543 55.6857 48.3163V44.3647C55.6943 43.5366 55.0872 42.8311 54.2671 42.7148V40.5373H57.328H57.3274C57.5461 40.5373 57.7561 40.4504 57.9109 40.2956C58.0657 40.1408 58.1526 39.9308 58.1526 39.7121V36.8411H68.168V67.3657L52.8559 67.3401Z" fill="black"/>
</svg>
